<svg width="164" height="29" viewBox="0 0 164 29" fill="none" xmlns="http://www.w3.org/2000/svg">
<path d="M6.424 28.216V23.104H12.22C13.204 23.104 13.936 22.852 14.416 22.348C14.896 21.844 15.136 21.112 15.136 20.152C15.136 19.192 14.896 18.472 14.416 17.992C13.936 17.488 13.204 17.236 12.22 17.236H6.424V13.276H12.004C13.852 13.276 15.508 13.504 16.972 13.96C18.436 14.392 19.588 15.112 20.428 16.12C21.268 17.128 21.688 18.472 21.688 20.152V20.656C21.688 22.24 21.316 23.596 20.572 24.724C19.828 25.852 18.736 26.716 17.296 27.316C15.856 27.916 14.092 28.216 12.004 28.216H6.424ZM0.664 28.216V1.504H7.144V28.216H0.664ZM6.424 16.228V12.268H11.248C12.232 12.268 12.94 12.028 13.372 11.548C13.828 11.044 14.056 10.348 14.056 9.46C14.056 8.548 13.828 7.852 13.372 7.372C12.94 6.868 12.232 6.616 11.248 6.616H6.424V1.504H10.96C14.032 1.504 16.408 2.152 18.088 3.448C19.768 4.72 20.608 6.544 20.608 8.92V9.46C20.608 11.116 20.176 12.448 19.312 13.456C18.472 14.44 17.32 15.148 15.856 15.58C14.416 16.012 12.784 16.228 10.96 16.228H6.424ZM28.2622 28L36.6862 1.72H47.4142L56.1262 28H49.2142L42.4462 6.4L44.3542 7.12H39.6022L41.5462 6.4L34.9582 28H28.2622ZM35.1382 21.916L37.1542 16.444H47.1262L49.1422 21.916H35.1382ZM64.4796 28V1.72H75.4596L84.2076 22.672H85.4676L84.7476 23.32V1.72H91.0116V28H79.9596L71.2116 7.048H69.9516L70.6716 6.4V28H64.4796ZM114.007 28.72C111.631 28.72 109.591 28.312 107.887 27.496C106.183 26.656 104.779 25.564 103.675 24.22C102.571 22.852 101.755 21.376 101.227 19.792C100.699 18.208 100.435 16.672 100.435 15.184V14.392C100.435 12.736 100.699 11.116 101.227 9.532C101.779 7.924 102.607 6.472 103.711 5.176C104.839 3.88 106.243 2.848 107.923 2.08C109.603 1.312 111.571 0.927999 113.827 0.927999C116.227 0.927999 118.351 1.384 120.199 2.296C122.071 3.184 123.571 4.444 124.699 6.076C125.827 7.684 126.487 9.556 126.679 11.692H119.983C119.815 10.78 119.455 9.988 118.903 9.316C118.351 8.644 117.643 8.128 116.779 7.768C115.915 7.384 114.931 7.192 113.827 7.192C112.795 7.192 111.859 7.372 111.019 7.732C110.203 8.092 109.507 8.608 108.931 9.28C108.379 9.928 107.947 10.72 107.635 11.656C107.347 12.592 107.203 13.648 107.203 14.824C107.203 16 107.347 17.056 107.635 17.992C107.947 18.928 108.391 19.732 108.967 20.404C109.567 21.076 110.287 21.592 111.127 21.952C111.967 22.288 112.927 22.456 114.007 22.456C115.687 22.456 117.103 22.048 118.255 21.232C119.431 20.416 120.139 19.324 120.379 17.956H127.075C126.859 19.924 126.199 21.724 125.095 23.356C123.991 24.988 122.503 26.296 120.631 27.28C118.759 28.24 116.551 28.72 114.007 28.72ZM148.882 28.72C146.482 28.72 144.394 28.312 142.618 27.496C140.842 26.656 139.366 25.564 138.19 24.22C137.014 22.852 136.138 21.376 135.562 19.792C134.986 18.208 134.698 16.672 134.698 15.184V14.392C134.698 12.736 134.998 11.116 135.598 9.532C136.198 7.924 137.098 6.472 138.298 5.176C139.498 3.88 140.974 2.848 142.726 2.08C144.502 1.312 146.554 0.927999 148.882 0.927999C151.186 0.927999 153.214 1.312 154.966 2.08C156.742 2.848 158.23 3.88 159.43 5.176C160.63 6.472 161.53 7.924 162.13 9.532C162.754 11.116 163.066 12.736 163.066 14.392V15.184C163.066 16.672 162.766 18.208 162.166 19.792C161.59 21.376 160.714 22.852 159.538 24.22C158.362 25.564 156.886 26.656 155.11 27.496C153.334 28.312 151.258 28.72 148.882 28.72ZM148.882 22.456C150.034 22.456 151.066 22.264 151.978 21.88C152.89 21.496 153.67 20.956 154.318 20.26C154.966 19.564 155.458 18.76 155.794 17.848C156.13 16.912 156.298 15.904 156.298 14.824C156.298 13.672 156.118 12.628 155.758 11.692C155.422 10.756 154.93 9.952 154.282 9.28C153.634 8.608 152.854 8.092 151.942 7.732C151.03 7.372 150.01 7.192 148.882 7.192C147.73 7.192 146.698 7.372 145.786 7.732C144.874 8.092 144.094 8.608 143.446 9.28C142.798 9.952 142.306 10.756 141.97 11.692C141.634 12.628 141.466 13.672 141.466 14.824C141.466 15.904 141.634 16.912 141.97 17.848C142.306 18.76 142.798 19.564 143.446 20.26C144.094 20.956 144.874 21.496 145.786 21.88C146.698 22.264 147.73 22.456 148.882 22.456Z" fill="#0F224A"/>
</svg>
