<svg width="82" height="41" viewBox="0 0 82 41" fill="none" xmlns="http://www.w3.org/2000/svg">
<path d="M37.6939 41L2.32318e-07 41C2.83463e-05 39.7402 0.480649 38.4803 1.44188 37.5191L15.3659 23.5951C17.2884 21.6725 20.4055 21.6725 22.328 23.5951L36.252 37.5191C37.2133 38.4803 37.6939 39.7402 37.6939 41Z" fill="#0F224A"/>
<path d="M82 41L44.3061 41C44.3061 39.7402 44.7867 38.4803 45.748 37.5191L59.672 23.5951C61.5945 21.6725 64.7115 21.6725 66.6341 23.5951L80.5581 37.5191C81.5193 38.4803 82 39.7402 82 41Z" fill="#0F224A"/>
<path d="M37.519 1.44188C39.4415 -0.480628 42.5585 -0.480628 44.481 1.44188L58.405 15.3659C60.3276 17.2884 60.3276 20.4054 58.4051 22.3279L44.481 36.252C42.5585 38.1745 39.4415 38.1745 37.519 36.252L23.5949 22.3279C21.6724 20.4054 21.6724 17.2884 23.5949 15.3659L37.519 1.44188Z" fill="#0F224A"/>
</svg>
