<svg width="156" height="78" viewBox="0 0 156 78" fill="none" xmlns="http://www.w3.org/2000/svg">
<path d="M71.7104 -3.68442e-06L5.4526e-08 -6.81898e-06C5.35397e-05 2.39677 0.914404 4.79353 2.74309 6.62221L29.2328 33.1118C32.8902 36.7693 38.8201 36.7693 42.4776 33.1118L68.9673 6.62221C70.7959 4.79353 71.7103 2.39677 71.7104 -3.68442e-06Z" fill="#0F224A"/>
<path d="M156 0L84.2896 -3.13456e-06C84.2897 2.39677 85.204 4.79353 87.0327 6.62221L113.522 33.1118C117.18 36.7693 123.11 36.7693 126.767 33.1118L153.257 6.62221C155.086 4.79354 156 2.39678 156 0Z" fill="#0F224A"/>
<path d="M71.3775 75.2569C75.035 78.9144 80.9649 78.9144 84.6224 75.2569L111.112 48.7673C114.77 45.1098 114.77 39.1799 111.112 35.5225L84.6224 9.03284C80.9649 5.37539 75.035 5.37539 71.3775 9.03284L44.8879 35.5225C41.2304 39.1799 41.2304 45.1098 44.8879 48.7673L71.3775 75.2569Z" fill="#0F224A"/>
</svg>
